<?xml version="1.0" standalone="no"?><!DOCTYPE svg PUBLIC "-//W3C//DTD SVG 1.1//EN" "http://www.w3.org/Graphics/SVG/1.1/DTD/svg11.dtd"><svg t="1533623772308" class="icon" style="" viewBox="0 0 1024 1024" version="1.1" xmlns="http://www.w3.org/2000/svg" p-id="3615" xmlns:xlink="http://www.w3.org/1999/xlink" width="48" height="48"><defs><style type="text/css"></style></defs><path d="M512 64q17.664 0 30.176 12.512t12.512 30.176l0 494.336 140.32-140.672q12.32-12.32 30.336-12.32 18.336 0 30.496 12.16t12.16 30.496q0 18.016-12.32 30.336l-213.344 213.344q-12.32 12.32-30.336 12.32t-30.336-12.32l-213.344-213.344q-12.32-12.992-12.32-30.336 0-17.664 12.512-30.176t30.176-12.512q18.016 0 30.336 12.32l140.32 140.672 0-494.336q0-17.664 12.512-30.176t30.176-12.512zM938.656 661.344q17.664 0 30.176 12.512t12.512 30.176l0 170.656q0 53.344-36.992 90.336-37.664 37.664-90.016 37.664l-683.68 0q-52.32 0-90.656-37.344-37.344-38.336-37.344-90.656l0-170.656q0-17.664 12.512-30.176t30.176-12.512 30.176 12.512 12.512 30.176l0 170.656q0 17.664 12.512 30.176t30.176 12.512l683.68 0q17.344 0 29.504-12.512t12.16-30.176l0-170.656q0-17.664 12.512-30.176t30.176-12.512z" fill="#3a137f" p-id="3616"></path></svg>