<?xml version="1.0" encoding="utf-8"?>
<!-- Generator: Adobe Illustrator 17.0.0, SVG Export Plug-In . SVG Version: 6.00 Build 0)  -->
<!DOCTYPE svg PUBLIC "-//W3C//DTD SVG 1.1//EN" "http://www.w3.org/Graphics/SVG/1.1/DTD/svg11.dtd">
<svg version="1.1" id="图层_1" xmlns="http://www.w3.org/2000/svg" xmlns:xlink="http://www.w3.org/1999/xlink" x="0px" y="0px"
                       width="188px" height="55px" viewBox="0 0 188 55" enable-background="new 0 0 188 55" xml:space="preserve">
                   <g>
                   <g>
                       <path fill="#FFFFFF" d="M5.247,54.674l-4.747-2.741V3.066l4.747-2.741l21.16,12.217l1.582,2.741v24.433l-1.582,2.741L5.247,54.674
                       z M6.83,8.547v37.905l14.831-8.563V17.11L6.83,8.547z"/>
                   </g>
                   <g>
                       <polygon fill="#FFFFFF" points="82.582,35.424 68.98,43.277 55.316,35.389 55.316,19.612 68.98,11.723 82.582,19.577 
                       88.911,15.922 68.98,4.415 48.987,15.958 48.987,39.043 68.98,50.585 88.912,39.078 		"/>
                   </g>
                   <g>
                       <polygon fill="#FFFFFF" points="47.141,40.109 41.653,43.277 27.99,35.389 27.99,19.612 41.653,11.723 47.141,14.892 
                       53.47,11.238 41.653,4.415 21.661,15.958 21.661,39.043 41.653,50.585 53.47,43.763 		"/>
                   </g>
                   </g>
                   <g>
                   <path fill="#FFFFFF" d="M103.643,35.834H90.833v-17.18h12.411v2.039H93.107v5.25h9.481v2.039h-9.481v5.813h10.536V35.834z"/>
                   <path fill="#FFFFFF" d="M117.955,35.834h-2.742l-3.094-4.852l-3.093,4.852h-2.742l4.594-6.457l-4.23-5.977h2.742l2.729,4.348
                       l2.73-4.348h2.742l-4.23,5.954L117.955,35.834z"/>
                   <path fill="#FFFFFF" d="M123.163,24.888c0.984-1.18,2.168-1.77,3.551-1.77c1.625,0,2.883,0.576,3.773,1.729s1.336,2.709,1.336,4.67
                       c0,2.039-0.498,3.65-1.494,4.834s-2.252,1.775-3.768,1.775c-1.344,0-2.477-0.418-3.398-1.254v5.742h-2.215V23.4h2.215V24.888z
                       M123.163,32.881c0.945,1.008,2.031,1.512,3.258,1.512c0.953,0,1.711-0.408,2.273-1.225s0.844-2.033,0.844-3.65
                       c0-1.532-0.266-2.694-0.797-3.487s-1.273-1.189-2.227-1.189c-1.227,0-2.344,0.711-3.352,2.133V32.881z"/>
                   <path fill="#FFFFFF" d="M137.711,35.834h-2.215v-17.18h2.215V35.834z"/>
                   <path fill="#FFFFFF" d="M147.208,23.119c1.773,0,3.189,0.566,4.248,1.699s1.588,2.734,1.588,4.805c0,2.062-0.529,3.662-1.588,4.799
                       s-2.475,1.705-4.248,1.705c-1.766,0-3.178-0.568-4.236-1.705s-1.588-2.736-1.588-4.799c0-2.071,0.529-3.672,1.588-4.805
                       S145.442,23.119,147.208,23.119z M147.208,34.393c1.055,0,1.91-0.4,2.566-1.201s0.984-1.99,0.984-3.568
                       c0-1.586-0.328-2.78-0.984-3.581s-1.512-1.201-2.566-1.201s-1.91,0.4-2.566,1.201s-0.984,1.995-0.984,3.581
                       c0,1.578,0.328,2.768,0.984,3.568S146.153,34.393,147.208,34.393z"/>
                   <path fill="#FFFFFF" d="M163.174,25.416c-0.312-0.094-0.762-0.141-1.348-0.141c-1.125,0-2.09,0.59-2.895,1.77v8.79h-2.215V23.4
                       h2.215v1.734c0.93-1.344,2.008-2.016,3.234-2.016c0.312,0,0.648,0.031,1.008,0.094V25.416z"/>
                   <path fill="#FFFFFF" d="M171.193,36.127c-1.828,0-3.297-0.572-4.406-1.717s-1.664-2.74-1.664-4.787
                       c0-2.032,0.537-3.624,1.611-4.776s2.479-1.729,4.213-1.729c1.773,0,3.189,0.566,4.248,1.699s1.588,2.734,1.588,4.805v0.527h-9.363
                       c0.094,1.438,0.49,2.504,1.189,3.199s1.561,1.043,2.584,1.043c0.773,0,1.471-0.197,2.092-0.592s0.947-0.955,0.979-1.682h2.285
                       c-0.172,1.281-0.752,2.27-1.74,2.965S172.615,36.127,171.193,36.127z M174.451,28.416c-0.18-1.196-0.582-2.09-1.207-2.684
                       s-1.391-0.891-2.297-0.891c-0.883,0-1.641,0.295-2.273,0.885s-1.035,1.486-1.207,2.69H174.451z"/>
                   <path fill="#FFFFFF" d="M186.913,25.416c-0.312-0.094-0.762-0.141-1.348-0.141c-1.125,0-2.09,0.59-2.895,1.77v8.79h-2.215V23.4
                       h2.215v1.734c0.93-1.344,2.008-2.016,3.234-2.016c0.312,0,0.648,0.031,1.008,0.094V25.416z"/>
                   </g>
                   </svg>
