<?xml version="1.0" encoding="utf-8"?>
<!-- Generator: Adobe Illustrator 17.0.0, SVG Export Plug-In . SVG Version: 6.00 Build 0)  -->
<!DOCTYPE svg PUBLIC "-//W3C//DTD SVG 1.1//EN" "http://www.w3.org/Graphics/SVG/1.1/DTD/svg11.dtd">
<svg version="1.1" id="图层_1" xmlns="http://www.w3.org/2000/svg" xmlns:xlink="http://www.w3.org/1999/xlink" x="0px" y="0px"
	 width="595.28px" height="841.89px" viewBox="0 0 595.28 841.89" enable-background="new 0 0 595.28 841.89" xml:space="preserve">
<g>
	<g>
		<linearGradient id="SVGID_1_" gradientUnits="userSpaceOnUse" x1="17.3398" y1="414.3198" x2="255.873" y2="428.7472">
			<stop  offset="0" style="stop-color:#3EBEEA"/>
			<stop  offset="1" style="stop-color:#5959A6"/>
		</linearGradient>
		<path fill="url(#SVGID_1_)" d="M41.889,494.292l-13.71-7.916V345.233l13.71-7.916l61.117,35.286l4.57,7.916v70.571l-4.57,7.916
			L41.889,494.292z M46.459,361.064v109.482l42.836-24.732v-60.017L46.459,361.064z"/>
	</g>
	<g>
		<linearGradient id="SVGID_2_" gradientUnits="userSpaceOnUse" x1="18.0102" y1="403.2266" x2="256.5432" y2="417.654">
			<stop  offset="0" style="stop-color:#3EBEEA"/>
			<stop  offset="1" style="stop-color:#5959A6"/>
		</linearGradient>
		<polygon fill="url(#SVGID_2_)" points="265.256,438.691 225.968,461.373 186.504,438.59 186.504,393.021 225.968,370.236 
			265.256,392.919 283.536,382.365 225.968,349.128 168.223,382.467 168.223,449.144 225.968,482.481 283.537,449.245 		"/>
	</g>
	<g>
		<linearGradient id="SVGID_3_" gradientUnits="userSpaceOnUse" x1="17.723" y1="407.9831" x2="256.2564" y2="422.4105">
			<stop  offset="0" style="stop-color:#3EBEEA"/>
			<stop  offset="1" style="stop-color:#5959A6"/>
		</linearGradient>
		<polygon fill="url(#SVGID_3_)" points="162.891,452.222 147.04,461.373 107.576,438.59 107.576,393.021 147.04,370.236 
			162.892,379.388 181.172,368.834 147.04,349.128 89.296,382.467 89.296,449.144 147.04,482.481 181.172,462.776 		"/>
	</g>
</g>
<g>
	<path fill="#5B5CA7" d="M337.943,440.829h-28.624V394.26h28.624v6.414h-21.63v13.408h20.401v6.141h-20.401v14.193h21.63V440.829z"
		/>
	<path fill="#5B5CA7" d="M361.141,428.001h-0.238l-8.086,12.828h-7.574l11.77-17.843l-11.975-18.184h8.154l7.847,12.794h0.307
		l8.086-12.794h7.744l-12.077,17.707l12.111,18.32h-7.984L361.141,428.001z"/>
	<path fill="#5B5CA7" d="M392.87,435.404h-0.34v17.707h-6.892v-48.343h6.686v5.731h0.341c1.262-3.343,4.844-6.209,10.713-6.209
		c8.222,0,13.647,5.766,13.647,15.694v5.629c0,9.996-5.493,15.728-13.851,15.728C397.339,441.341,394.234,438.577,392.87,435.404z
		 M410.065,424.59v-3.514c0-7.029-3.343-10.679-8.734-10.679c-5.492,0-8.801,3.754-8.801,9.929v5.561
		c0,5.561,3.582,9.347,8.938,9.347C406.516,435.233,410.065,431.856,410.065,424.59z"/>
	<path fill="#5B5CA7" d="M427.362,390.78h6.892v50.049h-6.892V390.78z"/>
	<path fill="#5B5CA7" d="M476.081,420.393v4.743c0,10.405-6.585,16.307-15.763,16.307c-9.313,0-15.795-5.834-15.795-16.307v-4.743
		c0-9.826,6.584-16.205,15.795-16.205C469.495,404.188,476.081,410.261,476.081,420.393z M451.448,420.769v4.093
		c0,6.108,3.104,10.577,8.905,10.577c5.732,0,8.802-4.435,8.802-10.577v-4.093c0-6.073-3.241-10.577-8.802-10.577
		S451.448,414.696,451.448,420.769z"/>
	<path fill="#5B5CA7" d="M486.623,404.802h6.892v5.595h0.341c0.853-2.422,3.48-6.141,9.655-6.141c0.887,0,1.705,0.102,2.388,0.204
		v6.55c-0.614-0.171-1.877-0.239-3.071-0.239c-6.175,0-9.211,3.651-9.211,8.496v21.562h-6.994V404.802z"/>
	<path fill="#5B5CA7" d="M512.005,425.272v-4.947c0-10.167,6.482-16.138,15.182-16.138c8.87,0,15.181,6.244,15.181,16.138v4.265
		h-23.54v1.774c0,5.219,3.138,9.109,8.768,9.109c4.094,0,6.858-1.911,7.438-4.128h6.892c-0.512,4.128-4.879,10.099-14.261,10.099
		C517.908,441.443,512.005,435.404,512.005,425.272z M535.58,419.711v-0.512c0-5.492-3.309-9.143-8.359-9.143
		c-5.05,0-8.392,3.65-8.392,9.143v0.512H535.58z"/>
	<path fill="#5B5CA7" d="M552.74,404.802h6.892v5.595h0.341c0.853-2.422,3.48-6.141,9.655-6.141c0.887,0,1.705,0.102,2.388,0.204
		v6.55c-0.614-0.171-1.877-0.239-3.071-0.239c-6.175,0-9.211,3.651-9.211,8.496v21.562h-6.994V404.802z"/>
</g>
</svg>
