<?xml version="1.0" encoding="utf-8"?>
<!-- Generator: Adobe Illustrator 17.0.0, SVG Export Plug-In . SVG Version: 6.00 Build 0)  -->
<!DOCTYPE svg PUBLIC "-//W3C//DTD SVG 1.1//EN" "http://www.w3.org/Graphics/SVG/1.1/DTD/svg11.dtd">
<svg version="1.1" id="图层_1" xmlns="http://www.w3.org/2000/svg" xmlns:xlink="http://www.w3.org/1999/xlink" x="0px" y="0px"
	 width="16px" height="16px" viewBox="0 0 16 16" enable-background="new 0 0 16 16" xml:space="preserve">
<path fill="#FFFFFF" d="M15.743,14.814l-2.881-2.885c0.465-0.564,0.853-1.185,1.133-1.868c0.355-0.857,0.55-1.801,0.55-2.781
	c0-0.971-0.195-1.887-0.536-2.744l-0.014-0.038c-0.365-0.872-0.891-1.663-1.55-2.327l-0.033-0.033
	c-0.659-0.668-1.469-1.208-2.355-1.578l0,0C9.194,0.204,8.255,0,7.274,0C5.27,0,3.45,0.824,2.132,2.137
	C1.46,2.805,0.924,3.606,0.55,4.497C0.199,5.364,0,6.303,0,7.279c0,0.967,0.199,1.9,0.54,2.749l0.01,0.033
	c0.369,0.896,0.91,1.701,1.583,2.365l0,0c0.673,0.673,1.469,1.208,2.36,1.573l0,0c0.858,0.36,1.801,0.55,2.782,0.55
	c0.981,0,1.924-0.189,2.782-0.55c0.682-0.279,1.308-0.664,1.867-1.128l2.887,2.886c0.26,0.256,0.677,0.256,0.933,0
	C16.008,15.496,16.008,15.075,15.743,14.814L15.743,14.814z M11.473,11.478L11.473,11.478L11.473,11.478l-0.014,0.01
	c-0.54,0.545-1.195,0.981-1.914,1.289c-0.692,0.279-1.464,0.445-2.27,0.445c-0.811,0-1.578-0.166-2.274-0.445l0,0
	c-0.725-0.308-1.379-0.754-1.924-1.299H3.071h0.005c-0.55-0.559-0.991-1.204-1.294-1.933L1.772,9.52
	C1.488,8.828,1.337,8.066,1.337,7.279c0-0.811,0.156-1.573,0.445-2.275C2.085,4.284,2.521,3.63,3.076,3.09
	C4.152,2.005,5.63,1.341,7.274,1.341c0.806,0,1.578,0.166,2.27,0.446c0.73,0.308,1.379,0.744,1.929,1.303l0.033,0.028
	c0.531,0.531,0.957,1.181,1.256,1.887l0.014,0.038c0.275,0.692,0.436,1.441,0.436,2.237c0,0.806-0.161,1.578-0.45,2.265
	C12.464,10.284,12.018,10.938,11.473,11.478L11.473,11.478z"/>
</svg>
