<?xml version="1.0" encoding="utf-8"?>
<!-- Generator: Adobe Illustrator 17.0.0, SVG Export Plug-In . SVG Version: 6.00 Build 0)  -->
<!DOCTYPE svg PUBLIC "-//W3C//DTD SVG 1.1//EN" "http://www.w3.org/Graphics/SVG/1.1/DTD/svg11.dtd">
<svg version="1.1" id="图层_1" xmlns="http://www.w3.org/2000/svg" xmlns:xlink="http://www.w3.org/1999/xlink" x="0px" y="0px"
	 width="543.837px" height="156.975px" viewBox="0 0 543.837 156.975" enable-background="new 0 0 543.837 156.975"
	 xml:space="preserve">
<g>
	<g>
		
			<linearGradient id="SVGID_1_" gradientUnits="userSpaceOnUse" x1="-0.8603" y1="77.9628" x2="228.5745" y2="64.0856" gradientTransform="matrix(1 0 0 -1 0.42 155.03)">
			<stop  offset="0" style="stop-color:#3EBEEA"/>
			<stop  offset="1" style="stop-color:#5959A6"/>
		</linearGradient>
		<path fill="url(#SVGID_1_)" d="M23.173,153.989l-13.187-7.614V10.616l13.187-7.614l58.786,33.94l4.396,7.614v67.879l-4.396,7.614
			L23.173,153.989z M27.568,25.843v105.306L68.77,107.36V49.633L27.568,25.843z"/>
	</g>
	<g>
		
			<linearGradient id="SVGID_2_" gradientUnits="userSpaceOnUse" x1="-0.2155" y1="88.6329" x2="229.2191" y2="74.7558" gradientTransform="matrix(1 0 0 -1 0.42 155.03)">
			<stop  offset="0" style="stop-color:#3EBEEA"/>
			<stop  offset="1" style="stop-color:#5959A6"/>
		</linearGradient>
		<polygon fill="url(#SVGID_2_)" points="238.02,100.509 200.23,122.326 162.271,100.412 162.271,56.581 200.23,34.665 
			238.02,56.483 255.602,46.332 200.23,14.362 144.688,46.43 144.688,110.564 200.23,142.629 255.603,110.661 		"/>
	</g>
	<g>
		
			<linearGradient id="SVGID_3_" gradientUnits="userSpaceOnUse" x1="-0.4917" y1="84.0578" x2="228.9433" y2="70.1807" gradientTransform="matrix(1 0 0 -1 0.42 155.03)">
			<stop  offset="0" style="stop-color:#3EBEEA"/>
			<stop  offset="1" style="stop-color:#5959A6"/>
		</linearGradient>
		<polygon fill="url(#SVGID_3_)" points="139.559,113.524 124.313,122.326 86.354,100.412 86.354,56.581 124.313,34.665 
			139.56,43.468 157.143,33.317 124.313,14.362 68.771,46.43 68.771,110.564 124.313,142.629 157.143,123.676 		"/>
	</g>
</g>
<g>
	<path fill="#5B5CA7" d="M307.934,102.566h-27.532V57.773h27.532v6.169h-20.805v12.897h19.623v5.907h-19.623v13.652h20.805V102.566z
		"/>
	<path fill="#5B5CA7" d="M330.247,90.227h-0.229l-7.778,12.339h-7.285l11.321-17.162l-11.518-17.49h7.843l7.548,12.306h0.295
		l7.778-12.306h7.449l-11.616,17.032l11.649,17.621h-7.679L330.247,90.227z"/>
	<path fill="#5B5CA7" d="M360.766,97.348h-0.327v17.032h-6.629v-46.5h6.431v5.512h0.328c1.214-3.215,4.659-5.972,10.304-5.972
		c7.908,0,13.126,5.546,13.126,15.095v5.414c0,9.615-5.284,15.128-13.323,15.128C365.065,103.058,362.078,100.4,360.766,97.348z
		 M377.305,86.946v-3.38c0-6.761-3.215-10.272-8.401-10.272c-5.283,0-8.465,3.611-8.465,9.55v5.349c0,5.349,3.445,8.99,8.597,8.99
		C373.892,97.183,377.305,93.935,377.305,86.946z"/>
	<path fill="#5B5CA7" d="M393.942,54.426h6.629v48.14h-6.629V54.426z"/>
	<path fill="#5B5CA7" d="M440.803,82.909v4.562c0,10.008-6.334,15.685-15.162,15.685c-8.958,0-15.193-5.611-15.193-15.685v-4.562
		c0-9.451,6.333-15.587,15.193-15.587C434.468,67.322,440.803,73.164,440.803,82.909z M417.11,83.271v3.937
		c0,5.875,2.986,10.174,8.565,10.174c5.513,0,8.466-4.266,8.466-10.174v-3.937c0-5.841-3.117-10.174-8.466-10.174
		C420.326,73.097,417.11,77.429,417.11,83.271z"/>
	<path fill="#5B5CA7" d="M450.943,67.913h6.629v5.382h0.328c0.82-2.33,3.347-5.907,9.287-5.907c0.853,0,1.64,0.098,2.297,0.196v6.3
		c-0.591-0.164-1.805-0.23-2.954-0.23c-5.939,0-8.86,3.512-8.86,8.172v20.74h-6.727V67.913z"/>
	<path fill="#5B5CA7" d="M475.357,87.602v-4.758c0-9.779,6.235-15.522,14.603-15.522c8.532,0,14.602,6.006,14.602,15.522v4.102
		H481.92v1.706c0,5.02,3.018,8.762,8.434,8.762c3.938,0,6.596-1.838,7.154-3.971h6.629c-0.492,3.971-4.693,9.714-13.717,9.714
		C481.035,103.156,475.357,97.348,475.357,87.602z M498.033,82.253v-0.492c0-5.283-3.183-8.794-8.04-8.794s-8.072,3.511-8.072,8.794
		v0.492H498.033z"/>
	<path fill="#5B5CA7" d="M514.538,67.913h6.629v5.382h0.328c0.82-2.33,3.347-5.907,9.287-5.907c0.853,0,1.64,0.098,2.297,0.196v6.3
		c-0.591-0.164-1.805-0.23-2.954-0.23c-5.939,0-8.86,3.512-8.86,8.172v20.74h-6.727L514.538,67.913L514.538,67.913z"/>
</g>
</svg>
