<?xml version="1.0" standalone="no"?><!DOCTYPE svg PUBLIC "-//W3C//DTD SVG 1.1//EN" "http://www.w3.org/Graphics/SVG/1.1/DTD/svg11.dtd"><svg t="1530258592055" class="icon" style="" viewBox="0 0 1024 1024" version="1.1" xmlns="http://www.w3.org/2000/svg" p-id="2521" xmlns:xlink="http://www.w3.org/1999/xlink" width="48" height="48"><defs><style type="text/css"></style></defs><path d="M513.6 960c-60.5 0-119.1-11.8-174.4-35.2-53.3-22.6-101.2-54.9-142.4-96-41.1-41.1-73.4-89-96-142.4C77.4 631.2 65.6 572.5 65.6 512s11.9-119 35.3-174.2c22.6-53.3 54.9-101.2 96-142.4 41.1-41.1 89-73.4 142.4-96C394.5 76 453.2 64.2 513.7 64.2S632.8 76 688.1 99.4c53.3 22.6 101.2 54.9 142.4 96 41.1 41.1 73.4 89 96 142.4 23.4 55.2 35.2 113.9 35.2 174.4s-11.8 119.1-35.2 174.4c-22.6 53.3-54.9 101.2-96 142.4-41.1 41.1-89 73.4-142.4 96-55.4 23.2-114 35-174.5 35z m0-865.7c-230.4 0-417.8 187.4-417.8 417.8S283.2 930 513.6 930s417.8-187.4 417.8-417.8c0-230.5-187.4-417.9-417.8-417.9z" p-id="2522" fill="#736A93"></path><path d="M448.1 713.5c-3.6 0-7.2-1.4-10-4.2-5.5-5.5-5.4-14.4 0.1-19.8l163.4-162.1L438 363c-5.5-5.5-5.4-14.4 0.1-19.8 5.5-5.5 14.4-5.4 19.8 0.1l173.5 174.4c2.6 2.6 4.1 6.2 4.1 9.9s-1.5 7.3-4.2 9.9L458 709.5c-2.8 2.7-6.3 4-9.9 4z" p-id="2523" fill="#736A93"></path></svg>